C:\GBW_MyPrograms\KinderuniversiteitApp\Resultaten\Ellis_1010\Aarde\Aarde_v2.mot
version=1
nRows=19
nColumns=29
inDegrees=yes
endheader
                time	         pelvis_tilt	           pelvis_tx	           pelvis_ty	       hip_flexion_l	       hip_flexion_r	        knee_angle_l	        knee_angle_r	       ankle_angle_l	       ankle_angle_r	    lumbar_extension	hamstrings_r/activation	bifemsh_r/activation	glut_max_r/activation	iliopsoas_r/activation	rect_fem_r/activation	  vasti_r/activation	gastroc_r/activation	 soleus_r/activation	tib_ant_r/activation	hamstrings_l/activation	bifemsh_l/activation	glut_max_l/activation	iliopsoas_l/activation	rect_fem_l/activation	  vasti_l/activation	gastroc_l/activation	 soleus_l/activation	tib_ant_l/activation	
          1.44331039	         -8.02833725	          1.90392005	          0.89027370	         30.35940249	         -9.21935750	         -7.66012198	        -12.25586486	          8.54914284	          4.89547796	          1.94011786	          0.05000000	          0.13253241	          0.05000000	          0.53576265	          0.05000000	          0.05000000	          0.19560568	          0.28213269	          0.05000000	          0.22601992	          0.05000000	          0.05697908	          0.05000000	          0.06333113	          0.07466632	          0.05355631	          0.05000000	          0.23104788	
          1.45293246	         -8.03973467	          1.91977664	          0.88980758	         29.50070233	         -8.44288074	         -7.79339237	        -15.37297822	          8.22402869	          3.75895913	          2.31596657	          0.05000002	          0.11421586	          0.05000000	          0.46171795	          0.05000000	          0.05000000	          0.16857214	          0.24314074	          0.05000000	          0.19765550	          0.05866937	          0.10647104	          0.05000000	          0.05457849	          0.06897953	          0.05961703	          0.05801838	          0.21346850	
          1.46255453	         -8.04875343	          1.93559461	          0.88942319	         28.63554626	         -7.43221169	         -8.08554318	        -18.82413029	          7.86871123	          2.22174687	          2.68610435	          0.05000000	          0.09843074	          0.06160526	          0.39790655	          0.05000000	          0.05000000	          0.14527474	          0.20953764	          0.05000000	          0.17033866	          0.06732266	          0.15177645	          0.05000000	          0.05000000	          0.10728841	          0.05137770	          0.05000000	          0.27551768	
          1.47217660	         -8.06069011	          1.95105592	          0.88934675	         27.83948093	         -6.17118289	         -8.42817314	        -22.55387433	          7.43032995	          0.23386881	          3.01615143	          0.05000000	          0.08482719	          0.05309115	          0.34291415	          0.05849617	          0.05000000	          0.12519715	          0.18057864	          0.25632342	          0.14679712	          0.05801838	          0.20781481	          0.05000000	          0.05000000	          0.19157085	          0.05000000	          0.05000000	          0.29791298	
          1.48179867	         -8.07820651	          1.96590981	          0.88962231	         27.13806730	         -4.71519259	         -8.85942418	        -26.42071676	          7.06109832	         -1.46454712	          3.27747422	          0.05000000	          0.07310371	          0.05000000	          0.29552194	          0.15265501	          0.05000000	          0.10789436	          0.15562190	          0.22089842	          0.12650913	          0.05000000	          0.22127653	          0.05000000	          0.05000000	          0.24414152	          0.05000000	          0.05000000	          0.32230441	
          1.49142074	         -8.10307413	          1.98012331	          0.89029955	         26.49389997	         -3.18973085	         -9.31272784	        -30.07966406	          6.79920335	         -1.84901770	          3.46854953	          0.05000000	          0.08338842	          0.05000000	          0.25467954	          0.21917934	          0.05000000	          0.09298290	          0.13411428	          0.28274678	          0.11387583	          0.05000000	          0.21448281	          0.05000000	          0.05000000	          0.26809693	          0.05000000	          0.05000000	          0.32207287	
          1.50104281	         -8.13374560	          1.99381017	          0.89146108	         25.85269954	         -1.66834213	         -9.71049571	        -33.31455678	          6.66233890	         -1.73366295	          3.60286072	          0.05540594	          0.12875907	          0.05000000	          0.21948173	          0.28797827	          0.05000000	          0.08013226	          0.11557911	          0.29189722	          0.10516551	          0.05000000	          0.20696314	          0.05000000	          0.05000000	          0.27062706	          0.05000000	          0.05000000	          0.31736415	
          1.51066488	         -8.16884955	          2.00709200	          0.89306603	         25.17187066	         -0.18755884	         -9.98957247	        -36.04495970	          6.62208906	         -1.42666670	          3.69465940	          0.06993890	          0.17189994	          0.05000000	          0.18914841	          0.33818174	          0.05000000	          0.07235903	          0.09960558	          0.28011729	          0.10116486	          0.05000000	          0.19216127	          0.05000000	          0.05000000	          0.25996233	          0.05000000	          0.05000000	          0.30585090	
          1.52028695	         -8.20625960	          2.02006805	          0.89501417	         24.42937085	          1.23806576	        -10.12318145	        -38.26991903	          6.65024375	         -0.97321102	          3.75406030	          0.07779647	          0.22258955	          0.05000000	          0.16300729	          0.37073887	          0.05000000	          0.07047309	          0.08583966	          0.26640088	          0.09962703	          0.05000000	          0.17567666	          0.05000000	          0.05000000	          0.24260585	          0.05000000	          0.05000000	          0.29249055	
          1.52990902	         -8.24397429	          2.03280639	          0.89719039	         23.62136911	          2.61152961	        -10.11275755	        -40.03447234	          6.71455348	         -0.42785657	          3.78713401	          0.07811905	          0.27784162	          0.05000000	          0.14748471	          0.38579660	          0.05000000	          0.06583665	          0.07397625	          0.24967434	          0.09981625	          0.05000000	          0.16222777	          0.05000000	          0.05000000	          0.22392096	          0.05000000	          0.05000000	          0.27838549	
          1.53953108	         -8.28028953	          2.04534873	          0.89948473	         22.75327819	          3.94680277	         -9.97377138	        -41.41031367	          6.79223403	          0.18386243	          3.79684278	          0.06732267	          0.33606559	          0.05000000	          0.13610502	          0.38702451	          0.05000000	          0.06019849	          0.06375242	          0.23176671	          0.10009091	          0.05000000	          0.15374533	          0.05000000	          0.05000000	          0.20622508	          0.05000000	          0.05000000	          0.26555789	
          1.54915315	         -8.31375263	          2.05772018	          0.90180227	         21.83266465	          5.26209304	         -9.72375223	        -42.47521637	          6.86709528	          0.84135856	          3.78431862	          0.05801839	          0.39652317	          0.05000000	          0.12918020	          0.37837230	          0.05000000	          0.05654337	          0.05494156	          0.21464419	          0.09907514	          0.05000000	          0.14654816	          0.05000000	          0.05000000	          0.19066184	          0.05000000	          0.05000000	          0.25427830	
          1.55877522	         -8.34283099	          2.06993418	          0.90406478	         20.86771506	          6.57788748	         -9.38102549	        -43.30952283	          6.93122543	          1.50558683	          3.74912335	          0.05000000	          0.45545276	          0.05000000	          0.12475922	          0.36301303	          0.05000000	          0.05226640	          0.05000000	          0.20217275	          0.09677333	          0.05000000	          0.13991776	          0.05000000	          0.05000000	          0.17796890	          0.05000000	          0.05000000	          0.24481900	
          1.56839729	         -8.36618455	          2.08199725	          0.90620894	         19.86636757	          7.91511369	         -8.96278647	        -43.99346594	          6.98161656	          2.13214745	          3.69022015	          0.05000000	          0.50885390	          0.05000000	          0.12324420	          0.34436606	          0.05000000	          0.05000000	          0.05000000	          0.19980782	          0.09236249	          0.05000000	          0.13013863	          0.05000000	          0.05000000	          0.16775124	          0.05000000	          0.05000000	          0.23648034	
          1.57801936	         -8.38274291	          2.09391206	          0.90818392	         18.83698179	          9.29333404	         -8.48642502	        -44.60544182	          7.01842010	          2.70124710	          3.60645508	          0.05000000	          0.54933083	          0.05000000	          0.12250058	          0.32439504	          0.05000000	          0.05000000	          0.05000000	          0.19916027	          0.08707888	          0.05000000	          0.12042001	          0.05000000	          0.05000000	          0.15989228	          0.05000000	          0.05000000	          0.22876821	
          1.58764143	         -8.39180367	          2.10568340	          0.90995177	         17.78608620	         10.72622993	         -7.96566701	        -45.20913407	          7.04239892	          3.23591668	          3.49743030	          0.05000000	          0.57126293	          0.05000000	          0.12233033	          0.30504878	          0.05000000	          0.05000000	          0.05000000	          0.19994043	          0.08098976	          0.05000000	          0.11084792	          0.05000000	          0.05000000	          0.15308204	          0.05000000	          0.05202124	          0.22264300	
          1.59726350	         -8.39301678	          2.11732199	          0.91148930	         16.71744936	         12.21869932	         -7.40895225	        -45.84198237	          7.05142492	          3.75489323	          3.36397264	          0.05000000	          0.57132856	          0.05000000	          0.12283247	          0.28736888	          0.05000000	          0.05000000	          0.05000000	          0.20145836	          0.07427751	          0.05000000	          0.10162388	          0.05000000	          0.05000000	          0.14704536	          0.05000000	          0.05649099	          0.21780403	
          1.60688557	         -8.38635610	          2.12884502	          0.91278815	         15.63257789	         13.76612248	         -6.82134784	        -46.51264194	          7.04721095	          4.26408314	          3.20815185	          0.05000000	          0.54821873	          0.05000000	          0.12340462	          0.27144212	          0.05000000	          0.05000000	          0.05000000	          0.20321746	          0.06781781	          0.05000000	          0.09326561	          0.05000000	          0.05000000	          0.14078602	          0.06614971	          0.05912836	          0.21798700	
          1.61650764	         -8.37206310	          2.14027227	          0.91385355	         14.53556355	         15.35522798	         -6.21303636	        -47.20321729	          7.03373908	          4.76421942	          3.03268042	          0.05000000	          0.49783935	          0.05000000	          0.12513943	          0.25739348	          0.05000000	          0.05000000	          0.05000000	          0.20509091	          0.06119591	          0.05000000	          0.08503424	          0.05000000	          0.05000000	          0.13541270	          0.08325791	          0.06438396	          0.21795499	
